<?xml version="1.0" encoding="utf-8"?>
<!-- Generator: Adobe Illustrator 22.0.1, SVG Export Plug-In . SVG Version: 6.00 Build 0)  -->
<svg version="1.1" id="Layer_1" xmlns="http://www.w3.org/2000/svg" xmlns:xlink="http://www.w3.org/1999/xlink" x="0px" y="0px"
	 viewBox="0 0 200 150" style="enable-background:new 0 0 200 150;" xml:space="preserve">
<style type="text/css">
	.st0{fill:none;stroke:#000000;stroke-width:5;stroke-linecap:round;stroke-linejoin:round;stroke-miterlimit:10;}
</style>
<g>
	<path class="st0" d="M113.4,124.1c0,0-4-16.3-9.4-25S89.4,84.6,91.9,72s33.3-33.8,64.4-37.8c8.4-1.4,15.4-2.4,15.4-2.4
		s-2.5-7.7-31.8-3.7s-30.6,2.7-39.9,1s-28.1-7.8-42.5,3.4S46.9,47,38.7,56.4s-2,14.4-5.2,25.7S28.4,100,28.4,100"/>
	<path class="st0" d="M56.2,111.6c0,0,7.2-13.4,16.5-20.1S85.2,83,84.7,80s0-5.3-9.3-7.3s-27-7.8-29-28.6"/>
	<path class="st0" d="M107.5,30.4c0,0,0,5.5-3.7,12.1c-3.7,6.7,4.8,10.4,4.8,10.4"/>
	<line class="st0" x1="86.3" y1="38" x2="91.9" y2="38"/>
</g>
</svg>
