<?xml version="1.0" encoding="utf-8"?>
<!-- Generator: Adobe Illustrator 22.0.1, SVG Export Plug-In . SVG Version: 6.00 Build 0)  -->
<svg version="1.1" id="Layer_1" xmlns="http://www.w3.org/2000/svg" xmlns:xlink="http://www.w3.org/1999/xlink" x="0px" y="0px"
	 viewBox="0 0 200 150" style="enable-background:new 0 0 200 150;" xml:space="preserve">
<style type="text/css">
	.st0{fill:none;stroke:#000000;stroke-width:5;stroke-linecap:round;stroke-linejoin:round;stroke-miterlimit:10;}
</style>
<g>
	<g>
		<path class="st0" d="M161,93.8L161,93.8c0-23.3-18.9-42.2-42.2-42.2S76.5,70.4,76.5,93.8c0,23.3,18.9,42.2,42.2,42.2
			c8.8,0,17-2.7,23.8-7.3l16.6,5.5l-5.5-16.6"/>
		<path class="st0" d="M121.5,43.6C116.1,26.4,100.1,14,81.2,14C57.9,14,39,32.9,39,56.2c0,8.8,2.7,17,7.3,23.8l-5.5,16.6l16.6-5.5
			c3.4,2.3,7.1,4.1,11.1,5.4"/>
	</g>
	<line class="st0" x1="118.8" y1="81.6" x2="118.8" y2="103.3"/>
	<line class="st0" x1="107.9" y1="92.5" x2="129.6" y2="92.5"/>
	<line class="st0" x1="69.5" y1="52.9" x2="85" y2="52.9"/>
</g>
</svg>
