<?xml version="1.0" encoding="utf-8"?>
<!-- Generator: Adobe Illustrator 22.1.0, SVG Export Plug-In . SVG Version: 6.00 Build 0)  -->
<svg version="1.1" xmlns="http://www.w3.org/2000/svg" xmlns:xlink="http://www.w3.org/1999/xlink" x="0px" y="0px"
	 viewBox="0 0 130 130" style="enable-background:new 0 0 130 130;" xml:space="preserve">
<style type="text/css">
	.st0{fill-rule:evenodd;clip-rule:evenodd;fill:none;stroke:#FFFFFF;stroke-width:5;stroke-linejoin:round;stroke-miterlimit:10;}
	
		.st1{fill-rule:evenodd;clip-rule:evenodd;fill:none;stroke:#FFFFFF;stroke-width:5;stroke-linecap:round;stroke-linejoin:round;stroke-miterlimit:10;}
	.st2{fill:#FFFFFF;}
	.st3{fill:none;stroke:#FFFFFF;stroke-width:5;stroke-linecap:round;stroke-linejoin:round;stroke-miterlimit:10;}
	.st4{fill:none;stroke:#FFFFFF;stroke-width:5;stroke-linejoin:round;stroke-miterlimit:10;}
</style>
<g id="Layer_1">
</g>
<g id="Layer_4">
</g>
<g id="Layer_3">
</g>
<g id="Layer_2">
	<g>
		<g>
			<g>
				<path class="st2" d="M100.4,41.3l-5.6,0v-5.8c0-1.3-1-2.5-2.3-2.7c-0.2,0-5.7-0.8-12.3,0.4C72.8,34.5,67,37.8,63,42.8
					c-4-5-9.8-8.3-17.2-9.6c-6.6-1.2-12.1-0.4-12.3-0.4c-1.3,0.2-2.3,1.3-2.3,2.7v5.8h-5.6c-1.5,0-2.7,1.2-2.7,2.7v50.7
					c0,0.9,0.4,1.7,1.1,2.2c0.7,0.5,1.6,0.6,2.4,0.3c0.2-0.1,20.4-7,35.4-0.1c0.7,0.3,1.5,0.3,2.2,0c15-6.8,35.2,0,35.4,0.1
					c0.3,0.1,0.6,0.1,0.9,0.1c0.6,0,1.1-0.2,1.6-0.5c0.7-0.5,1.1-1.3,1.1-2.2V44C103.1,42.5,101.9,41.3,100.4,41.3L100.4,41.3z
					 M28.3,91.2V46.7h2.9v35.9c0,0.8,0.3,1.5,0.9,2c0.6,0.5,1.4,0.7,2.2,0.6c0.1,0,11.8-1.6,20.4,4.2C44.1,87.7,33.6,89.8,28.3,91.2
					L28.3,91.2z M60.3,87c-3.8-3.4-8.7-5.7-14.5-6.8c-2.8-0.5-5.4-0.7-7.5-0.7c-0.6,0-1.2,0-1.7,0V38c5.2-0.2,17.8,0.3,23.7,10.4V87
					z M65.7,48.4C71.6,38.3,84.2,37.8,89.4,38v41.7c-2.3-0.1-5.6,0-9.2,0.6c-5.8,1.1-10.7,3.4-14.5,6.8V48.4z M71.3,89.5
					c8.5-5.9,20.3-4.3,20.4-4.2c0.8,0.1,1.6-0.1,2.2-0.6c0.6-0.5,0.9-1.3,0.9-2V46.7h2.9v44.4C92.4,89.8,81.8,87.7,71.3,89.5
					L71.3,89.5z M71.3,89.5"/>
			</g>
		</g>
	</g>
</g>
</svg>
