<?xml version="1.0" encoding="utf-8"?>
<!-- Generator: Adobe Illustrator 21.1.0, SVG Export Plug-In . SVG Version: 6.00 Build 0)  -->
<svg version="1.1" id="Layer_1" xmlns="http://www.w3.org/2000/svg" xmlns:xlink="http://www.w3.org/1999/xlink" x="0px" y="0px"
	 viewBox="0 0 18.1 18.1" style="enable-background:new 0 0 18.1 18.1;" xml:space="preserve">
<g>
	<g>
		<path d="M9.1,0C4.1,0,0,4.1,0,9.1c0,5,4.1,9.1,9.1,9.1c5,0,9.1-4.1,9.1-9.1C18.1,4.1,14,0,9.1,0L9.1,0z M9.1,17
			c-4.4,0-7.9-3.6-7.9-7.9s3.6-7.9,7.9-7.9S17,4.7,17,9.1S13.4,17,9.1,17L9.1,17z M9.1,17"/>
	</g>
	<g>
		<path d="M10.1,5.4c0,0.5-0.4,0.9-0.9,0.9C8.7,6.4,8.3,6,8.3,5.4c0-0.5,0.4-0.9,0.9-0.9C9.7,4.5,10.1,4.9,10.1,5.4L10.1,5.4z
			 M10.1,5.4"/>
	</g>
	<g>
		<path d="M9,7.9c-0.3,0-0.6,0.3-0.6,0.6v4.7c0,0.3,0.3,0.6,0.6,0.6c0.3,0,0.6-0.2,0.6-0.6V8.5C9.5,8.1,9.3,7.9,9,7.9L9,7.9z M9,7.9
			"/>
	</g>
</g>
</svg>
