<?xml version="1.0" encoding="utf-8"?>
<!-- Generator: Adobe Illustrator 22.0.1, SVG Export Plug-In . SVG Version: 6.00 Build 0)  -->
<svg version="1.1" id="Layer_1" xmlns="http://www.w3.org/2000/svg" xmlns:xlink="http://www.w3.org/1999/xlink" x="0px" y="0px"
	 viewBox="0 0 200 150" style="enable-background:new 0 0 200 150;" xml:space="preserve">
<style type="text/css">
	.st0{fill:none;stroke:#000000;stroke-width:5;stroke-linecap:round;stroke-linejoin:round;stroke-miterlimit:10;}
</style>
<g>
	<path class="st0" d="M132.7,29.5h4.8c9.1,0,16.5,7.4,16.5,16.5v81.9c0,3.9-3.1,7-7,7H43.5c-3.9,0-7-3.1-7-7V46
		c0-9.1,7.4-16.5,16.5-16.5h4.1"/>
	<polyline class="st0" points="94.9,134.9 94.9,43.9 116.9,15.1 132.7,29.5 110.8,58.8 94.9,43.9 	"/>
	<polyline class="st0" points="94.9,43.9 72.9,15.1 57.1,29.5 79.1,58.8 94.9,43.9 	"/>
	<line class="st0" x1="72.9" y1="15.1" x2="116.9" y2="15.1"/>
</g>
<path d="M135.1,106.2c-0.1-0.2-0.2-0.3-0.2-0.5c-0.1-0.1-0.2-0.3-0.3-0.4c-0.1-0.1-0.3-0.2-0.4-0.3c-0.1-0.1-0.3-0.2-0.5-0.2
	c-0.2-0.1-0.3-0.1-0.5-0.2c-0.3-0.1-0.7-0.1-1,0c-0.2,0-0.3,0.1-0.5,0.2c-0.2,0.1-0.3,0.2-0.5,0.2c-0.1,0.1-0.3,0.2-0.4,0.3
	c-0.1,0.1-0.2,0.3-0.3,0.4c-0.1,0.1-0.2,0.3-0.2,0.5c-0.1,0.2-0.1,0.3-0.2,0.5c0,0.2-0.1,0.4-0.1,0.5c0,0.2,0,0.4,0.1,0.5
	c0,0.2,0.1,0.3,0.2,0.5c0.1,0.2,0.2,0.3,0.2,0.5c0.1,0.1,0.2,0.3,0.3,0.4c0.1,0.1,0.3,0.2,0.4,0.3c0.1,0.1,0.3,0.2,0.5,0.2
	c0.2,0.1,0.3,0.1,0.5,0.2c0.2,0,0.3,0.1,0.5,0.1c0.2,0,0.4,0,0.5-0.1c0.2,0,0.3-0.1,0.5-0.2c0.2-0.1,0.3-0.2,0.5-0.2
	c0.1-0.1,0.3-0.2,0.4-0.3c0.1-0.1,0.2-0.3,0.3-0.4c0.1-0.1,0.2-0.3,0.2-0.5c0.1-0.2,0.1-0.3,0.2-0.5c0-0.2,0.1-0.3,0.1-0.5
	c0-0.2,0-0.4-0.1-0.5C135.2,106.6,135.1,106.4,135.1,106.2z"/>
<path d="M66.5,74.6l-3.8,0.3c-0.2,0-0.5,0-0.7-0.2l-2.6-1.6c-2.7-1.7-6.1-2.1-9.1-1c-3,1.1-5.4,3.4-6.5,6.5L42,83.8
	c-0.9,2.6-0.3,5.5,1.8,7.4s4.9,2.5,7.5,1.4c0.8-0.3,1.7-0.4,2.6,0l3.9,1.6c1.2,0.5,2.4,0.7,3.5,0.7c3.4,0,6.8-1.9,8.5-5.1l3-5.5
	c1.1-2.1,1-4.6-0.3-6.6C71.2,75.6,68.9,74.5,66.5,74.6z M68,81.7l-3,5.5c-1,1.9-3.3,2.7-5.3,1.9l-3.9-1.6c-1-0.4-2.1-0.6-3.2-0.6
	c-1.2,0-2.3,0.2-3.4,0.7c-0.9,0.4-1.5-0.1-1.7-0.3c-0.2-0.2-0.7-0.8-0.4-1.7l1.9-5.3c0.5-1.5,1.7-2.7,3.2-3.2
	c1.5-0.5,3.2-0.3,4.5,0.5v0l2.6,1.6c1.2,0.7,2.5,1,3.8,1l3.8-0.3c0.6,0,0.9,0.3,1.1,0.5C68.1,80.7,68.3,81.2,68,81.7z"/>
<path d="M55.3,97.7l-2.7-1.2c-1.4-0.6-2.9,0-3.5,1.3c-0.6,1.4,0,2.9,1.3,3.5l2.7,1.2c0.4,0.2,0.7,0.2,1.1,0.2c1,0,2-0.6,2.4-1.6
	C57.2,99.9,56.6,98.3,55.3,97.7z"/>
<path d="M79.7,68.3c0-1.5-1.2-2.7-2.7-2.7c-1.5,0-2.7,1.2-2.7,2.7v1.3c0,1.5,1.2,2.7,2.7,2.7c1.5,0,2.7-1.2,2.7-2.7V68.3z"/>
<path d="M94.8,85.7c-1.2-0.9-2.9-0.7-3.8,0.5l-3,3.8c-0.9,1.2-0.7,2.9,0.5,3.8c0.5,0.4,1.1,0.6,1.6,0.6c0.8,0,1.6-0.4,2.1-1.1l3-3.8
	C96.2,88.2,96,86.6,94.8,85.7z"/>
<path d="M84.5,116.1c-0.7-1.3-2.4-1.7-3.7-1c-1.3,0.7-1.7,2.4-1,3.7l1.1,1.9c0.5,0.9,1.4,1.4,2.3,1.4c0.5,0,0.9-0.1,1.3-0.4
	c1.3-0.7,1.7-2.4,1-3.7L84.5,116.1z"/>
<path d="M152.8,99.7c-1.1,0.1-2.2-0.2-3.1-0.9c-0.9-0.8-1.4-1.8-1.4-3c0-0.2,0-0.3,0-0.5c0-0.3,0.1-0.6,0.1-0.9
	c0-3.2-2.1-6.1-5.2-7.1c-1.8-0.6-2.6-2.2-2.6-3.6c0-0.6,0.1-1.5,0.9-2.4c2.4-3,2.9-7.1,1-10.5l-0.6-1.1c-0.4-0.8-0.4-1.7,0-2.5
	c0.4-0.8,1.1-1.4,2-1.5l8.8-1.5v-5.4l-9.7,1.7c-2.6,0.5-4.8,2.1-5.9,4.5c-1.2,2.4-1.1,5.1,0.1,7.4l0.6,1.1c0.8,1.5,0.6,3.3-0.5,4.6
	c-1.4,1.7-2.1,3.6-2.1,5.8c0,4,2.5,7.5,6.3,8.7c0.9,0.3,1.4,1.1,1.4,2c0,0.1,0,0.2,0,0.3c0,0.4-0.1,0.8-0.1,1.2c0,2.7,1.2,5.3,3.2,7
	c1.7,1.5,3.9,2.3,6.1,2.3L152.8,99.7z"/>
</svg>
