<?xml version="1.0" encoding="utf-8"?>
<!-- Generator: Adobe Illustrator 22.0.1, SVG Export Plug-In . SVG Version: 6.00 Build 0)  -->
<svg version="1.1" id="Layer_1" xmlns="http://www.w3.org/2000/svg" xmlns:xlink="http://www.w3.org/1999/xlink" x="0px" y="0px"
	 viewBox="0 0 200 150" style="enable-background:new 0 0 200 150;" xml:space="preserve">
<style type="text/css">
	.st0{fill:none;stroke:#000000;stroke-width:5;stroke-linecap:round;stroke-linejoin:round;stroke-miterlimit:10;}
</style>
<g>
	<path class="st0" d="M98.7,41.2c0.7-1.8,0.6-9.9,0.8-12.3c0.2-2.5-2-15.7,0-14.6s7.9,7,12.3,10.5S136,49.5,136,49.5l26.7,11
		c0,0,5.8,24.7-13.8,47.7"/>
	<path class="st0" d="M99.2,37.4c0,0-11.1,0.7-19.8,8.6s-10.9,8.8-13.5,15.8s-2.7,8.8-10.9,14s-14.9,10.3-17.3,11s-1.2,4.3,1,7
		s3.8,6.7,5.3,8s5.3,2.3,8.2,1.8c2.3,3.2,6.9,2,12.5,0.4s13.4-5.8,19.3-3.5c6,2.3,9.6,8.2,12.3,8.4c2.7,0.3,3.9-0.3,5.8,1.7
		s10,6.1,13.8,25c0,0,9-3.2,15.1-9.5"/>
	<path class="st0" d="M99.2,24.4c0,0-3.6-3-7.6-6.2s-7.7-3.5-7.7-1.9s2.9,5.7,3,8.2s-2.4,7.3-2.5,17.8"/>
	<line class="st0" x1="79.2" y1="71.6" x2="84.1" y2="70.9"/>
	<line class="st0" x1="36.4" y1="88.3" x2="46.4" y2="88.7"/>
	<line class="st0" x1="109.7" y1="37.4" x2="114.4" y2="46.6"/>
</g>
</svg>
