<?xml version="1.0" encoding="utf-8"?>
<!-- Generator: Adobe Illustrator 22.0.1, SVG Export Plug-In . SVG Version: 6.00 Build 0)  -->
<svg version="1.1" id="Layer_1" xmlns="http://www.w3.org/2000/svg" xmlns:xlink="http://www.w3.org/1999/xlink" x="0px" y="0px"
	 viewBox="0 0 200 150" style="enable-background:new 0 0 200 150;" xml:space="preserve">
<style type="text/css">
	.st0{fill:none;stroke:#000000;stroke-width:5;stroke-linecap:round;stroke-linejoin:round;stroke-miterlimit:10;}
</style>
<g>
	<g>
		<line class="st0" x1="100" y1="75" x2="100" y2="10.2"/>
		<line class="st0" x1="84" y1="16.2" x2="100" y2="32.2"/>
		<line class="st0" x1="116" y1="16.2" x2="100" y2="32.2"/>
		<line class="st0" x1="100" y1="75" x2="43.9" y2="42.6"/>
		<line class="st0" x1="41.1" y1="59.5" x2="63" y2="53.6"/>
		<line class="st0" x1="57.1" y1="31.8" x2="63" y2="53.6"/>
		<polyline class="st0" points="82.6,64.9 78.7,38.1 100,54.9 		"/>
		<line class="st0" x1="100" y1="75" x2="43.9" y2="107.4"/>
		<line class="st0" x1="57.1" y1="118.2" x2="63" y2="96.4"/>
		<line class="st0" x1="41.1" y1="90.5" x2="63" y2="96.4"/>
		<polyline class="st0" points="82.6,85.1 57.4,75 82.6,64.9 		"/>
		<line class="st0" x1="100" y1="75" x2="100" y2="139.8"/>
		<line class="st0" x1="116" y1="133.8" x2="100" y2="117.8"/>
		<line class="st0" x1="84" y1="133.8" x2="100" y2="117.8"/>
		<polyline class="st0" points="100,95.1 78.7,111.9 82.6,85.1 		"/>
		<line class="st0" x1="100" y1="75" x2="156.1" y2="107.4"/>
		<line class="st0" x1="158.9" y1="90.5" x2="137" y2="96.4"/>
		<line class="st0" x1="142.9" y1="118.2" x2="137" y2="96.4"/>
		<polyline class="st0" points="117.4,85.1 117.4,85.1 121.3,111.9 100,95.1 		"/>
		<line class="st0" x1="100" y1="75" x2="156.1" y2="42.6"/>
		<line class="st0" x1="142.9" y1="31.8" x2="137" y2="53.6"/>
		<polyline class="st0" points="117.4,64.9 121.3,38.1 100,54.9 		"/>
		<line class="st0" x1="158.9" y1="59.5" x2="137" y2="53.6"/>
		<polyline class="st0" points="117.4,64.9 142.6,75 117.4,85.1 		"/>
	</g>
</g>
</svg>
