<?xml version="1.0" encoding="utf-8"?>
<!-- Generator: Adobe Illustrator 22.1.0, SVG Export Plug-In . SVG Version: 6.00 Build 0)  -->
<svg version="1.1" id="Layer_1" xmlns="http://www.w3.org/2000/svg" xmlns:xlink="http://www.w3.org/1999/xlink" x="0px" y="0px"
	 viewBox="0 0 200 150" style="enable-background:new 0 0 200 150;" xml:space="preserve">
<style type="text/css">
	.st0{fill:none;stroke:#000000;stroke-width:5;stroke-linecap:round;stroke-linejoin:round;stroke-miterlimit:10;}
</style>
<g>
	<g>
		<g>
			<path class="st0" d="M55.8,65.4l5,57.1c0.4,5.1-3.6,9.4-8.7,9.4c0,0,0,0,0,0l0,0c-5.1,0-9.1-4.3-8.7-9.4l5-57.1"/>
		</g>
		<path class="st0" d="M64.5,19.2v39.7c0,3-2.4,5.5-5.5,5.5H45c-3,0-5.5-2.4-5.5-5.5V19.2"/>
		<line class="st0" x1="39.7" y1="53.8" x2="64.5" y2="53.8"/>
		<line class="st0" x1="52.1" y1="53.8" x2="52.1" y2="20.8"/>
	</g>
	<g>
		<polygon class="st0" points="129.9,131.9 88.2,131.9 77.4,53.2 140.7,53.2 		"/>
		<path class="st0" d="M138.3,71c4.4-1.3,11.7-3.2,15.8-2.8c6.2,0.5,6.3,7.9,6.3,13.1c0,13-12.1,17.5-26.7,23.4"/>
		<path class="st0" d="M94.1,43.7c0,0-2.8-4-2.8-9.3s5.1-5.5,5.1-10.2s-2.5-6.1-2.5-6.1"/>
		<path class="st0" d="M109.1,43.7c0,0-2.8-4-2.8-9.3s5.1-5.5,5.1-10.2s-2.5-6.1-2.5-6.1"/>
		<path class="st0" d="M124.1,43.7c0,0-2.8-4-2.8-9.3s5.1-5.5,5.1-10.2s-2.5-6.1-2.5-6.1"/>
	</g>
</g>
</svg>
