<?xml version="1.0" encoding="utf-8"?>
<!-- Generator: Adobe Illustrator 22.0.1, SVG Export Plug-In . SVG Version: 6.00 Build 0)  -->
<svg version="1.1" id="Layer_1" xmlns="http://www.w3.org/2000/svg" xmlns:xlink="http://www.w3.org/1999/xlink" x="0px" y="0px"
	 viewBox="0 0 200 150" style="enable-background:new 0 0 200 150;" xml:space="preserve">
<style type="text/css">
	.st0{fill:none;stroke:#000000;stroke-width:5;stroke-linecap:round;stroke-linejoin:round;stroke-miterlimit:10;}
</style>
<g>
	<g>
		<g>
			<rect x="58.7" y="55.9" class="st0" width="117.7" height="75.6"/>
		</g>
		<g>
			<polyline class="st0" points="48.7,124 45.6,125 23.6,52.6 136.2,18.5 144.5,45.9 			"/>
		</g>
		<g>
			<path class="st0" d="M74.3,98.1c4.1,0,4.1,4,8.2,4s4.1-4,8.2-4s4.1,4,8.2,4s4.1-4,8.2-4s4.1,4,8.2,4"/>
		</g>
		<g>
			<path class="st0" d="M74.3,85.3c4.1,0,4.1,4,8.2,4s4.1-4,8.2-4s4.1,4,8.2,4s4.1-4,8.2-4s4.1,4,8.2,4"/>
		</g>
		<g>
			<g>
				<line class="st0" x1="138.1" y1="105.1" x2="138.1" y2="66.8"/>
			</g>
			<g>
				<line class="st0" x1="166.7" y1="100.2" x2="133.9" y2="100.2"/>
			</g>
			<g>
				<line class="st0" x1="162.5" y1="66.8" x2="162.5" y2="105.1"/>
			</g>
			<g>
				<line class="st0" x1="133.9" y1="71.7" x2="166.7" y2="71.7"/>
			</g>
			<line class="st0" x1="150.3" y1="66.2" x2="150.3" y2="71.7"/>
			<line class="st0" x1="150.3" y1="100.2" x2="150.3" y2="105.7"/>
			<line class="st0" x1="162.5" y1="86" x2="168" y2="86"/>
			<line class="st0" x1="132.6" y1="86" x2="138.1" y2="86"/>
		</g>
		<polyline class="st0" points="113.9,47.7 123.6,36.1 131.1,40.3 		"/>
		<line class="st0" x1="41.5" y1="83.6" x2="48.7" y2="81.3"/>
	</g>
</g>
</svg>
