<?xml version="1.0" encoding="utf-8"?>
<!-- Generator: Adobe Illustrator 22.1.0, SVG Export Plug-In . SVG Version: 6.00 Build 0)  -->
<svg version="1.1" id="Layer_1" xmlns="http://www.w3.org/2000/svg" xmlns:xlink="http://www.w3.org/1999/xlink" x="0px" y="0px"
	 viewBox="0 0 392 392" style="enable-background:new 0 0 392 392;" xml:space="preserve">
<g>
	<path d="M196,392C87.9,392,0,304.1,0,196S87.9,0,196,0s196,87.9,196,196S304.1,392,196,392L196,392z M196,49.6
		c-80.7,0-146.4,65.7-146.4,146.4S115.3,342.4,196,342.4S342.4,276.7,342.4,196S276.7,49.6,196,49.6L196,49.6z M196,49.6"/>
	<path d="M216.3,127.4c0,12.9-10.4,23.3-23.3,23.3c-12.9,0-23.3-10.4-23.3-23.3c0-12.9,10.4-23.3,23.3-23.3
		C205.9,104.1,216.3,114.5,216.3,127.4L216.3,127.4z M216.3,127.4"/>
	<path d="M228.1,287.9h-64.2v-31.1h11.8v-53h-11.6v-31.1h52.2v84.1h11.8V287.9z M228.1,287.9"/>
</g>
</svg>
