<?xml version="1.0" encoding="utf-8"?>
<!-- Generator: Adobe Illustrator 22.0.1, SVG Export Plug-In . SVG Version: 6.00 Build 0)  -->
<svg version="1.1" id="Layer_1" xmlns="http://www.w3.org/2000/svg" xmlns:xlink="http://www.w3.org/1999/xlink" x="0px" y="0px"
	 viewBox="0 0 200 150" style="enable-background:new 0 0 200 150;" xml:space="preserve">
<style type="text/css">
	.st0{fill:none;stroke:#000000;stroke-width:5;stroke-linecap:round;stroke-linejoin:round;stroke-miterlimit:10;}
</style>
<g>
	<g>
		<path class="st0" d="M186.6,135.9H90.8c-10.6,0-19.2-8.6-19.2-19.2l0,0c0-8.6,5.6-15.9,13.4-18.3"/>
		<path class="st0" d="M170.8,110.9h-63.1c-3,0-5.5-2.5-5.5-5.5l0,0c0-3,2.5-5.5,5.5-5.5h63.1c3,0,5.5,2.5,5.5,5.5l0,0
			C176.3,108.4,173.9,110.9,170.8,110.9z"/>
		<line class="st0" x1="161.6" y1="110.9" x2="161.6" y2="135.9"/>
		<line class="st0" x1="116.7" y1="135.9" x2="116.7" y2="110.9"/>
	</g>
	<g>
		<polyline class="st0" points="13.4,118.6 19.1,118.6 21.2,118.6 35.1,118.6 59.7,118.6 		"/>
		<polyline class="st0" points="87.3,14.1 93.4,22.2 142.6,88 		"/>
		<line class="st0" x1="106.9" y1="59.7" x2="93.4" y2="41.9"/>
		<line class="st0" x1="124.2" y1="82.5" x2="114" y2="69.1"/>
		<line class="st0" x1="21.2" y1="118.6" x2="99.4" y2="14.1"/>
		<polyline class="st0" points="93.4,89.9 93.4,41.9 35.1,118.6 		"/>
		<line class="st0" x1="19.1" y1="106.1" x2="19.1" y2="118.6"/>
	</g>
</g>
</svg>
